HIERARCHY
ROOT RootJoint
{
    OFFSET   0.000000   0.000000   0.000000
    CHANNELS 6 Xposition Yposition Zposition Xrotation Yrotation Zrotation
    JOINT pelvis_lowerback
    {
        OFFSET   0.000000   0.093605   0.000000
        CHANNELS 3 Xrotation Yrotation Zrotation
        JOINT lowerback_torso
        {
            OFFSET   0.000000   0.100000   0.000000
            CHANNELS 3 Xrotation Yrotation Zrotation
            JOINT torso_head
            {
                OFFSET   0.000000   0.282350   0.000000
                CHANNELS 3 Xrotation Yrotation Zrotation
                End Site
                {
                    OFFSET   0.000000   0.192650   0.000000
                }
            }
            JOINT rTorso_Clavicle
            {
                OFFSET  -0.001000   0.157500   0.000000
                CHANNELS 3 Xrotation Yrotation Zrotation
                JOINT rShoulder
                {
                    OFFSET  -0.117647   0.000000   0.000000
                    CHANNELS 3 Xrotation Yrotation Zrotation
                    JOINT rElbow
                    {
                        OFFSET  -0.245000   0.000000   0.000000
                        CHANNELS 3 Xrotation Yrotation Zrotation
                        JOINT rWrist
                        {
                            OFFSET  -0.240000   0.000000   0.000000
                            CHANNELS 3 Xrotation Yrotation Zrotation
                            End Site
                            {
                                OFFSET  -0.116353  -0.002500   0.000000
                            }
                        }
                    }
                }
            }
            JOINT lTorso_Clavicle
            {
                OFFSET   0.001000   0.157500   0.000000
                CHANNELS 3 Xrotation Yrotation Zrotation
                JOINT lShoulder
                {
                    OFFSET   0.117647   0.000000   0.000000
                    CHANNELS 3 Xrotation Yrotation Zrotation
                    JOINT lElbow
                    {
                        OFFSET   0.245000   0.000000   0.000000
                        CHANNELS 3 Xrotation Yrotation Zrotation
                        JOINT lWrist
                        {
                            OFFSET   0.240000   0.000000   0.000000
                            CHANNELS 3 Xrotation Yrotation Zrotation
                            End Site
                            {
                                OFFSET   0.116353  -0.002500   0.000000
                            }
                        }
                    }
                }
            }
        }
    }
    JOINT rHip
    {
        OFFSET  -0.100000  -0.051395   0.000000
        CHANNELS 3 Xrotation Yrotation Zrotation
        JOINT rKnee
        {
            OFFSET   0.000000  -0.410000   0.000000
            CHANNELS 3 Xrotation Yrotation Zrotation
            JOINT rAnkle
            {
                OFFSET   0.000000  -0.390000   0.000000
                CHANNELS 3 Xrotation Yrotation Zrotation
                JOINT rToeJoint
                {
                    OFFSET   0.000000  -0.050000   0.130000
                    CHANNELS 3 Xrotation Yrotation Zrotation
                    End Site
                    {
                        OFFSET  -0.010000   0.002000   0.060000
                    }
                }
            }
        }
    }
    JOINT lHip
    {
        OFFSET   0.100000  -0.051395   0.000000
        CHANNELS 3 Xrotation Yrotation Zrotation
        JOINT lKnee
        {
            OFFSET   0.000000  -0.410000   0.000000
            CHANNELS 3 Xrotation Yrotation Zrotation
            JOINT lAnkle
            {
                OFFSET   0.000000  -0.390000   0.000000
                CHANNELS 3 Xrotation Yrotation Zrotation
                JOINT lToeJoint
                {
                    OFFSET   0.000000  -0.050000   0.130000
                    CHANNELS 3 Xrotation Yrotation Zrotation
                    End Site
                    {
                        OFFSET   0.010000   0.002000   0.060000
                    }
                }
            }
        }
    }
}
MOTION
Frames: 15
Frame Time:   0.008333
 -2.388690   0.903537   4.668297  -1.100258   0.876758  -0.309209   5.488708  -2.168900  -2.925995   0.619586  -1.728455   1.766910  -1.472129   0.196555   2.567580   2.167060  -1.643799   8.368791   7.080764  10.524023  47.812211  -0.000441  18.584927   0.001172   6.651175   3.280098   4.256566   0.355737  -1.449315  -6.888101   3.670404 -17.144845 -46.058305   0.000163 -18.134219  -0.000191   8.241025  -4.513327  -2.424853 -23.018589   1.156520  -6.471572  18.861169  -0.002642  -0.014075  -5.710777  -5.508568   5.533965  -1.556528  -0.000265   0.000672   5.466571  -3.016470  -1.539544  13.307905   0.000001  -0.000173 -16.651225  -4.810014   2.156681  -1.269204   0.000003  -0.000032
 -2.389736   0.902656   4.673646  -1.119037   1.111769  -0.255326   5.536291  -2.204388  -2.934614   0.651701  -1.746774   1.708691  -1.468571   0.151034   2.477311   2.202321  -1.707438   8.393506   7.184772  10.377309  47.814727  -0.000458  18.261232   0.001264   6.630344   3.304694   4.286421   0.400790  -1.420724  -6.899764   3.722052 -17.209947 -46.110357   0.000125 -18.129985  -0.000151   8.252510  -4.525252  -2.463663 -23.117225   1.202439  -6.587263  17.598182  -0.002373  -0.013751  -5.539361  -5.457475   5.574245  -1.547921  -0.000221   0.000567   5.851524  -3.084775  -1.472547  13.305662   0.000002  -0.000143 -16.953306  -4.980189   2.075431  -1.369085   0.000005  -0.000028
 -2.390801   0.901711   4.679061  -1.136178   1.345131  -0.190898   5.578752  -2.236667  -2.941615   0.686771  -1.765591   1.651227  -1.467656   0.107514   2.390375   2.246393  -1.776175   8.416675   7.292335  10.230115  47.813745  -0.000494  17.949942   0.001337   6.613579   3.278974   4.314388   0.450828  -1.388259  -6.913787   3.776343 -17.266943 -46.162367   0.000092 -18.123108  -0.000118   8.266346  -4.524655  -2.521771 -23.219743   1.250763  -6.721597  16.412732  -0.002180  -0.013275  -5.379093  -5.409771   5.611387  -1.536273  -0.000189   0.000493   6.235914  -3.154390  -1.412710  13.309412   0.000000  -0.000108 -17.260846  -5.146398   1.992036  -1.473665   0.000005  -0.000026
 -2.391902   0.900728   4.684530  -1.149307   1.570558  -0.120396   5.617295  -2.265839  -2.947615   0.723067  -1.783198   1.597290  -1.467621   0.067025   2.309383   2.294291  -1.846864   8.438947   7.398532  10.087435  47.812644  -0.000540  17.655941   0.001383   6.599335   3.230366   4.343028   0.503394  -1.352451  -6.929750   3.831645 -17.316360 -46.212487   0.000064 -18.114414  -0.000090   8.280060  -4.513031  -2.585828 -23.327602   1.299731  -6.862209  15.303621  -0.001982  -0.012655  -5.229629  -5.365279   5.645661  -1.525733  -0.000161   0.000428   6.615862  -3.222640  -1.355344  13.320555  -0.000004  -0.000068 -17.564930  -5.305056   1.906602  -1.596464   0.000006  -0.000026
 -2.393047   0.899723   4.690050  -1.156596   1.786486  -0.045838   5.652089  -2.292280  -2.952427   0.759293  -1.799237   1.547491  -1.467992   0.029302   2.234063   2.343086  -1.916985   8.461001   7.501007   9.951213  47.812352  -0.000592  17.379687   0.001403   6.586581   3.171928   4.372821   0.556842  -1.314848  -6.946587   3.886758 -17.359591 -46.260265   0.000041 -18.104556  -0.000068   8.293540  -4.493057  -2.652065 -23.439340   1.348170  -7.003049  14.266612  -0.001756  -0.011934  -5.090262  -5.323748   5.677353  -1.516589  -0.000137   0.000370   6.989048  -3.288465  -1.298364  13.338874  -0.000010  -0.000026 -17.859078  -5.454985   1.819424  -1.746295   0.000006  -0.000028
 -2.394239   0.898703   4.695620  -1.156373   1.992724   0.031783   5.682873  -2.316248  -2.955857   0.794228  -1.813702   1.501910  -1.468609  -0.005884   2.163966   2.391104  -1.985070   8.482930   7.598594   9.822294  47.813084  -0.000643  17.120835   0.001403   6.574812   3.109904   4.403651   0.609909  -1.276690  -6.963540   3.940740 -17.397849 -46.305529   0.000023 -18.094093  -0.000050   8.306740  -4.467387  -2.718910 -23.553199   1.395464  -7.140812  13.297430  -0.001502  -0.011154  -4.960322  -5.284962   5.706695  -1.508859  -0.000117   0.000318   7.353776  -3.351505  -1.240813  13.363675  -0.000018   0.000018 -18.139330  -5.596038   1.730786  -1.928055   0.000007  -0.000034
 -2.395480   0.897672   4.701239  -1.147181   2.189469   0.111984   5.709291  -2.337923  -2.957794   0.826844  -1.826672   1.460440  -1.469427  -0.038718   2.098696   2.437343  -2.050281   8.504538   7.690734   9.700971  47.814734  -0.000690  16.878730   0.001388   6.563745   3.047643   4.435117   0.661683  -1.238859  -6.980079   3.992918 -17.432083 -46.348200   0.000010 -18.083451  -0.000036   8.319610  -4.438228  -2.785306 -23.667498   1.441259  -7.273614  12.392020  -0.001227  -0.010349  -4.839170  -5.248725   5.733888  -1.502468  -0.000099   0.000271   7.708810  -3.411653  -1.182342  13.394142  -0.000029   0.000059 -18.403561  -5.728433   1.640937  -2.144007   0.000007  -0.000043
 -2.396837   0.896604   4.707026  -1.159122   2.442613   0.169403   5.727957  -2.381785  -2.936294   0.877792  -1.851840   1.425932  -1.469236  -0.088838   2.017942   2.488803  -2.130212   8.527411   7.776433   9.569568  47.823296  -0.000805  16.535830   0.001445   6.573839   3.067254   4.483977   0.722340  -1.198066  -6.991941   4.077503 -17.519783 -46.394459  -0.000066 -18.010965  -0.000027   8.343954  -4.436718  -2.842245 -23.774833   1.409443  -7.382041  11.740867  -0.000832  -0.009230  -4.663218  -5.309351   5.690818  -1.490574  -0.000083   0.000234   8.081270  -3.511945  -1.078622  13.450961  -0.000054   0.000139 -18.691675  -5.871819   1.536836  -2.358167   0.000007  -0.000049
 -2.398278   0.895514   4.712935  -1.166969   2.703581   0.229677   5.732313  -2.423763  -2.920153   0.927966  -1.879817   1.391906  -1.470882  -0.136027   1.941215   2.553015  -2.219345   8.552746   7.870071   9.435085  47.833390  -0.000893  16.206619   0.001483   6.587101   3.041725   4.544984   0.789693  -1.151130  -7.006997   4.164924 -17.595812 -46.441117  -0.000126 -17.938703  -0.000007   8.370273  -4.413266  -2.915394 -23.860716   1.374814  -7.478609  11.172648  -0.000450  -0.008258  -4.495562  -5.367472   5.650690  -1.469900  -0.000076   0.000217   8.450597  -3.617284  -0.967239  13.517356  -0.000083   0.000221 -18.967682  -6.014923   1.427455  -2.609564   0.000007  -0.000061
 -2.399787   0.894399   4.718928  -1.162674   2.958367   0.297122   5.725226  -2.461379  -2.910999   0.972381  -1.906415   1.355922  -1.474518  -0.179885   1.869025   2.622115  -2.311553   8.577780   7.965020   9.303082  47.844478  -0.000947  15.895483   0.001498   6.601697   2.993334   4.612071   0.860073  -1.099810  -7.023561   4.252438 -17.661968 -46.486636  -0.000170 -17.868575   0.000018   8.396016  -4.377030  -2.995292 -23.932386   1.341685  -7.565269  10.653470  -0.000091  -0.007395  -4.338369  -5.421728   5.613526  -1.448916  -0.000073   0.000202   8.808514  -3.720202  -0.856999  13.589242  -0.000112   0.000294 -19.226635  -6.152294   1.315702  -2.899517   0.000007  -0.000076
 -2.401355   0.893257   4.724984  -1.143495   3.202450   0.372263   5.709863  -2.494713  -2.907608   1.010345  -1.930576   1.317972  -1.479588  -0.220714   1.801104   2.691180  -2.402527   8.600987   8.057475   9.176407  47.855273  -0.000972  15.603190   0.001495   6.616614   2.935146   4.680141   0.930756  -1.046845  -7.040682   4.338034 -17.720520 -46.530422  -0.000200 -17.801364   0.000039   8.420968  -4.333487  -3.077759 -23.994314   1.310153  -7.642585  10.173678   0.000238  -0.006615  -4.191428  -5.472399   5.579061  -1.429093  -0.000072   0.000187   9.152378  -3.818505  -0.750423  13.664048  -0.000141   0.000355 -19.468554  -6.282289   1.202621  -3.224172   0.000008  -0.000096
 -2.402976   0.892086   4.731091  -1.108079   3.434607   0.454903   5.688343  -2.524234  -2.908653   1.042038  -1.952205   1.278618  -1.485549  -0.258774   1.737267   2.757553  -2.489933   8.621621   8.145466   9.056438  47.864986  -0.000975  15.329571   0.001480   6.631332   2.874165   4.745940   0.999874  -0.994224  -7.057872   4.420340 -17.773229 -46.572238  -0.000218 -17.737564   0.000056   8.445076  -4.286425  -3.160630 -24.048774   1.280161  -7.711185   9.728717   0.000533  -0.005907  -4.054190  -5.519741   5.547075  -1.410755  -0.000073   0.000172   9.481111  -3.911639  -0.648394  13.739971  -0.000168   0.000403 -19.694339  -6.404620   1.088645  -3.579680   0.000008  -0.000118
 -2.404644   0.890883   4.737243  -1.054946   3.664943   0.544448   5.661648  -2.553866  -2.912199   1.067728  -1.974076   1.238923  -1.492055  -0.294428   1.677409   2.820657  -2.573511   8.639492   8.228679   8.943169  47.873288  -0.000965  15.073746   0.001465   6.645557   2.813358   4.807760   1.065589  -0.944129  -7.075091   4.497919 -17.821952 -46.612185  -0.000226 -17.677678   0.000068   8.468333  -4.239355  -3.242719 -24.095077   1.251005  -7.774826   9.315575   0.000789  -0.005296  -3.926090  -5.564086   5.517351  -1.394218  -0.000073   0.000157   9.793205  -3.990686  -0.550944  13.817037  -0.000189   0.000451 -19.905308  -6.509639   0.972371  -3.964384   0.000012  -0.000240
 -2.406554   0.889932   4.743647  -1.044378   3.914616   0.599141   5.616872  -2.611561  -2.906412   1.147204  -1.994016   1.216260  -1.482690  -0.325701   1.605846   2.878480  -2.652853   8.650390   8.310420   8.861427  47.924605  -0.001102  14.728945   0.001570   6.675499   2.811693   4.868208   1.129564  -0.892153  -7.097253   4.594892 -17.850714 -46.679967  -0.000290 -17.590001   0.000089   8.501821  -4.200175  -3.295375 -24.195430   1.150540  -7.747966   9.467136   0.000405  -0.004081  -3.705805  -5.707908   5.351109  -1.335004  -0.000045   0.000093  10.148218  -4.115199  -0.389425  13.906691  -0.000237   0.000490 -19.994101  -6.621003   0.855367  -4.555677   0.000012  -0.000192
 -2.408625   0.889134   4.750243  -1.032243   4.190929   0.639386   5.554426  -2.677636  -2.896946   1.226101  -2.021768   1.196486  -1.473197  -0.355630   1.537955   2.948601  -2.742080   8.666284   8.399233   8.775722  47.981553  -0.001193  14.400421   0.001624   6.707352   2.779277   4.955705   1.203210  -0.833442  -7.125897   4.694644 -17.871905 -46.754031  -0.000349 -17.504298   0.000123   8.535578  -4.145938  -3.372674 -24.249987   1.042837  -7.677671   9.704275  -0.000099  -0.002945  -3.492312  -5.844670   5.196823  -1.257210  -0.000044   0.000052  10.494436  -4.239209  -0.195216  14.017792  -0.000302   0.000577 -19.991390  -6.725673   0.735610  -5.311029   0.000019  -0.000337
